<?xml version="1.0" encoding="UTF-8"?><svg id="Layer_2" xmlns="http://www.w3.org/2000/svg" viewBox="0 0 1526.35 724.97"><defs><style>.cls-1{fill:#f9cc3d;}.cls-2{fill:#901d1d;}.cls-3{fill:#cd272c;}.cls-4{fill:#193646;}.cls-5{fill:#e68b22;}</style></defs><g id="Layer_2-2"><path class="cls-1" d="M988.28,468.11c-17.5-20.09-42.75-30.7-74.43-30.7-5.43,0-10.72.35-15.87,1.03-26.39,3.51-48.94,15.92-65.87,36.43-5.87,7.12-10.87,14.8-14.97,23.01.04,1.75.05,3.5.05,5.25,0,2.24-.02,4.48-.06,6.71-.79-2.21-1.64-4.38-2.54-6.52-4.34-10.28-9.94-19.73-16.78-28.31-16.33-20.48-38.1-32.67-64.9-36.38-5.84-.81-11.93-1.22-18.25-1.22-35.54,0-64.34,12.54-85.6,37.26-7.19,8.36-13.13,17.5-17.78,27.37-3.55-9.36-8.05-18.02-13.48-25.96-17.33-25.3-42.11-38.67-71.66-38.67-12.19,0-23.52,2.1-33.84,6.23v-2.23h-91.52v65.3c-5.12-12.34-12.14-23.49-21.07-33.41-21.43-23.82-49.05-35.89-82.09-35.89-23.36,0-43.91,5.67-61.39,16.91-8.39,5.39-16.07,12.06-23.02,19.99-9.34,10.67-16.6,22.55-21.72,35.58-3.05-27.6-13.89-48.41-31.5-61.27-13.48-9.84-30.92-15.02-51.85-15.02-11.46,0-22.1,1.94-31.74,5.71v-65.5H0C57.07,158.6,253.19,0,486.35,0c266.1,0,483.95,206.58,501.93,468.11Z"/><path class="cls-5" d="M897.98,438.44c-26.39,3.51-48.94,15.92-65.87,36.43-5.87,7.12-10.87,14.8-14.97,23.01.04,1.75.05,3.5.05,5.25,0,2.24-.02,4.48-.06,6.71-.79-2.21-1.64-4.38-2.54-6.52-4.34-10.28-9.94-19.73-16.78-28.31-16.33-20.48-38.1-32.67-64.9-36.38-5.84-.81-11.93-1.22-18.25-1.22-35.54,0-64.34,12.54-85.6,37.26-7.19,8.36-13.13,17.5-17.78,27.37-3.55-9.36-8.05-18.02-13.48-25.96-17.33-25.3-42.11-38.67-71.66-38.67-12.19,0-23.52,2.1-33.84,6.23v-2.23h-91.52v65.3c-5.12-12.34-12.14-23.49-21.07-33.41-21.43-23.82-49.05-35.89-82.09-35.89-23.36,0-43.91,5.67-61.39,16.91-8.39,5.39-16.07,12.06-23.02,19.99-9.34,10.67-16.6,22.55-21.72,35.58-3.05-27.6-13.89-48.41-31.5-61.27-13.48-9.84-30.92-15.02-51.85-15.02-11.46,0-22.1,1.94-31.74,5.71v-10.8C111.56,234.02,281.73,86.51,486.35,86.51s380.56,152.55,411.63,351.93Z"/><path class="cls-3" d="M817.19,503.13c0,2.24-.02,4.48-.06,6.71-.79-2.21-1.64-4.38-2.54-6.52-4.34-10.28-9.94-19.73-16.78-28.31-16.33-20.48-38.1-32.67-64.9-36.38-5.84-.81-11.93-1.22-18.25-1.22-35.54,0-64.34,12.54-85.6,37.26-7.19,8.36-13.13,17.5-17.78,27.37-3.55-9.36-8.05-18.02-13.48-25.96-17.33-25.3-42.11-38.67-71.66-38.67-12.19,0-23.52,2.1-33.84,6.23v-2.23h-91.52v65.3c-5.12-12.34-12.14-23.49-21.07-33.41-21.43-23.82-49.05-35.89-82.09-35.89-23.36,0-43.91,5.67-61.39,16.91-8.39,5.39-16.07,12.06-23.02,19.99-9.34,10.67-16.6,22.55-21.72,35.58-3.05-27.6-13.89-48.41-31.5-61.27,25.99-156.78,162.22-276.33,326.36-276.33,180.97,0,328,145.29,330.79,325.59.04,1.75.05,3.5.05,5.25Z"/><path class="cls-2" d="M732.91,438.63c-5.84-.81-11.93-1.22-18.25-1.22-35.54,0-64.34,12.54-85.6,37.26-7.19,8.36-13.13,17.5-17.78,27.37-3.55-9.36-8.05-18.02-13.48-25.96-17.33-25.3-42.11-38.67-71.66-38.67-12.19,0-23.52,2.1-33.84,6.23v-2.23h-91.52v65.3c-5.12-12.34-12.14-23.49-21.07-33.41-21.43-23.82-49.05-35.89-82.09-35.89-23.36,0-43.91,5.67-61.39,16.91,22.77-117.37,126.09-205.99,250.12-205.99s218,80.81,246.56,190.3Z"/><path class="cls-4" d="M171.26,660.03h-43.42v-125.87c0-13.58-2.89-23.14-8.66-28.66-5.78-5.52-12.54-8.28-20.28-8.28-12.32,0-22.66,4.89-31.04,14.66-8.38,9.78-12.57,25.9-12.57,48.37v99.79H11.87v-259.94h43.42v101.31c10.79-27.67,29.71-41.51,56.75-41.51,39.48,0,59.22,22.66,59.22,67.98v132.16Z"/><path class="cls-4" d="M298.66,664.03c-28.44,0-50.15-10.22-65.13-30.66-14.98-20.44-22.47-43.86-22.47-70.27,0-28.44,8.28-52.11,24.85-71.03,16.57-18.92,38.43-28.37,65.6-28.37,25.77,0,46.94,9.21,63.51,27.61,16.57,18.41,24.85,42.34,24.85,71.79s-8.6,54.75-25.8,73.22c-17.2,18.47-39.01,27.71-65.41,27.71ZM300.18,628.23c29.2,0,43.8-21.77,43.8-65.32,0-19.68-3.49-35.2-10.47-46.56-6.98-11.36-17.71-17.04-32.18-17.04s-26.09,5.87-33.33,17.62c-7.24,11.74-10.85,27.33-10.85,46.75,0,20.95,3.84,36.94,11.52,47.99,7.68,11.04,18.19,16.57,31.52,16.57Z"/><path class="cls-4" d="M473.85,724.97h-44.18v-257.27h41.51v33.52c13.33-25.01,32.94-37.51,58.84-37.51,21.33,0,38.34,9.27,51.04,27.8,12.69,18.54,19.04,42.21,19.04,71.03,0,27.3-6.06,51.04-18.19,71.22-12.12,20.19-30.18,30.28-54.18,30.28s-42.72-10.28-53.89-30.85v91.79ZM473.85,581.19c0,13.97,4.16,25.55,12.47,34.75,8.31,9.21,17.55,13.81,27.71,13.81,13.84,0,23.96-6.06,30.37-18.19,6.41-12.12,9.62-27.52,9.62-46.18s-3.24-35.45-9.71-47.7c-6.47-12.25-16.12-18.38-28.95-18.38-11.55,0-21.36,5.02-29.42,15.04-8.06,10.03-12.09,23.17-12.09,39.42v27.42Z"/><path class="cls-4" d="M761.97,598.71l39.23,5.33c-5.08,17.39-14.98,31.74-29.71,43.04-14.73,11.3-33.2,16.95-55.42,16.95-26.66,0-48.12-8.95-64.37-26.85-16.25-17.9-24.38-42.15-24.38-72.74s8.19-53.13,24.57-72.17,38.59-28.56,66.65-28.56,48.62,9.4,63.6,28.18c14.98,18.79,22.47,42.91,22.47,72.36l-.19,4.95h-131.97c0,13.08,1.24,23.55,3.71,31.42,2.48,7.87,7.39,14.73,14.76,20.57,7.36,5.84,16.57,8.76,27.61,8.76,21.45,0,35.93-10.41,43.42-31.23ZM759.3,541.2c-.13-13.84-4.28-25.14-12.47-33.9s-18.31-13.14-30.37-13.14-21.9,4.09-29.9,12.28c-8,8.19-12.7,19.78-14.09,34.75h86.84Z"/><path class="cls-4" d="M955.26,589.38l37.32,3.81c-4.83,24.12-14.16,41.96-27.99,53.51-13.84,11.55-30.53,17.33-50.08,17.33-26.54,0-46.94-9.68-61.22-29.04-14.28-19.36-21.42-43.07-21.42-71.13s7.81-52.87,23.42-71.79c15.62-18.92,36.43-28.37,62.46-28.37,41.89,0,66.84,22.09,74.84,66.27l-37.32,5.14c-3.3-23.87-15.04-35.8-35.23-35.8-14.73,0-25.42,6.45-32.09,19.33-6.67,12.89-10,28.47-10,46.75,0,19.42,3.46,34.41,10.38,44.94,6.92,10.54,16.6,15.81,29.04,15.81,19.04,0,31.67-12.25,37.9-36.75Z"/><path class="cls-4" d="M1101.13,664.03c-28.44,0-50.15-10.22-65.13-30.66-14.98-20.44-22.47-43.86-22.47-70.27,0-28.44,8.28-52.11,24.85-71.03,16.57-18.92,38.43-28.37,65.6-28.37,25.77,0,46.94,9.21,63.51,27.61,16.57,18.41,24.85,42.34,24.85,71.79s-8.6,54.75-25.8,73.22c-17.2,18.47-39.01,27.71-65.41,27.71ZM1102.65,628.23c29.2,0,43.8-21.77,43.8-65.32,0-19.68-3.49-35.2-10.47-46.56-6.98-11.36-17.71-17.04-32.18-17.04s-26.09,5.87-33.33,17.62c-7.24,11.74-10.85,27.33-10.85,46.75,0,20.95,3.84,36.94,11.52,47.99,7.68,11.04,18.19,16.57,31.52,16.57Z"/><path class="cls-4" d="M1275.56,660.03h-43.42v-192.33h39.23v45.89c5.58-17.9,13.26-30.97,23.04-39.23,9.77-8.25,19.8-12.38,30.09-12.38,1.4,0,3.3.07,5.71.19v46.66c-22.09,0-36.72,7.05-43.89,21.14-7.17,14.09-10.76,27.74-10.76,40.94v89.12Z"/><path class="cls-4" d="M1483.7,598.71l39.23,5.33c-5.08,17.39-14.98,31.74-29.71,43.04-14.73,11.3-33.2,16.95-55.42,16.95-26.66,0-48.12-8.95-64.37-26.85-16.25-17.9-24.38-42.15-24.38-72.74s8.19-53.13,24.57-72.17,38.59-28.56,66.65-28.56,48.62,9.4,63.6,28.18c14.98,18.79,22.47,42.91,22.47,72.36l-.19,4.95h-131.97c0,13.08,1.24,23.55,3.71,31.42,2.47,7.87,7.39,14.73,14.76,20.57,7.36,5.84,16.57,8.76,27.61,8.76,21.45,0,35.93-10.41,43.42-31.23ZM1481.03,541.2c-.13-13.84-4.28-25.14-12.47-33.9-8.19-8.76-18.31-13.14-30.37-13.14s-21.9,4.09-29.9,12.28c-8,8.19-12.7,19.78-14.09,34.75h86.84Z"/></g></svg>